<svg xmlns="http://www.w3.org/2000/svg" viewBox="0 0 401.89 239.61"><defs><style>.cls-1{fill:#fff;}</style></defs><title>heltech</title><g id="Layer_2" data-name="Layer 2"><g id="Layer_1-2" data-name="Layer 1"><path class="cls-1" d="M0,34.71H8.82V50.25H26.19V34.71H35V74.88H26.19V58H8.82V74.88H0Z"/><path class="cls-1" d="M72.41,0V119.31H182.24V0Zm68.43,74.88H115.43V34.71h24.8v7.71h-16V50.3H138v7.33H124.25v9.54h16.59Z"/><path class="cls-1" d="M225.42,34.71h8.82V67.17h17.59v7.71H225.42Z"/><path class="cls-1" d="M13.09,152.25H.11v-7.71H34.9v7.71h-13V184.7H13.09Z"/><path class="cls-1" d="M72.41,109.82V219.65H182.24V109.82Zm68.43,74.88H115.43V144.54h24.8v7.71h-16v7.88H138v7.32H124.25V177h16.59Z"/><path class="cls-1" d="M242.06,143.93a25.78,25.78,0,0,1,11.15,2.49v8.93a20.46,20.46,0,0,0-11.09-3.49c-7.77,0-13.09,5.44-13.09,12.7s5.15,12.82,13.42,12.82a20.16,20.16,0,0,0,11.38-3.72v9a25.82,25.82,0,0,1-11.77,2.66c-12.92,0-21.86-8.93-21.86-20.63S229.14,143.93,242.06,143.93Z"/><path class="cls-1" d="M329.47,144.54h8.82v15.53h17.37V144.54h8.82V184.7h-8.82V167.78H338.29V184.7h-8.82Z"/><rect class="cls-1" x="182.24" y="219.65" width="116.72" height="19.96"/><rect class="cls-1" x="292.06" y="219.65" width="109.82" height="19.96"/></g></g></svg>