<?xml version="1.0" encoding="utf-8"?>
<!-- Generator: Adobe Illustrator 21.1.0, SVG Export Plug-In . SVG Version: 6.00 Build 0)  -->
<svg version="1.1" id="Layer_1" xmlns="http://www.w3.org/2000/svg" xmlns:xlink="http://www.w3.org/1999/xlink" x="0px" y="0px"
	 viewBox="0 0 128.5 74.9" style="enable-background:new 0 0 128.5 74.9;" xml:space="preserve">
<style type="text/css">
	.st0{stroke:#FFFFFF;stroke-miterlimit:10;}
</style>
<g>
	<path class="st0" d="M22.1,31.1h-0.5V16.5H1.2v14.5H0.7V2h0.5v14.1h20.4V2h0.5V31.1z"/>
	<path class="st0" d="M78.8,27.1c0.1,0,0.1,0,0.1,0.1l0.2,0.2c-0.6,0.6-1.3,1.1-2,1.6c-0.7,0.5-1.5,0.9-2.3,1.3
		c-0.8,0.4-1.7,0.6-2.7,0.8c-1,0.2-2.1,0.3-3.3,0.3c-2,0-3.8-0.3-5.4-1c-1.6-0.7-3.1-1.7-4.3-3s-2.1-2.8-2.8-4.7
		c-0.7-1.8-1-3.9-1-6.2c0-2.2,0.3-4.2,1-6.1C57,8.6,58,7.1,59.2,5.8c1.2-1.3,2.7-2.3,4.4-3c1.7-0.7,3.6-1.1,5.7-1.1
		c1.1,0,2,0.1,2.8,0.2C73,2,73.8,2.2,74.5,2.5c0.7,0.3,1.4,0.6,2.1,1.1c0.7,0.4,1.3,0.9,2,1.5l-0.1,0.1c-0.1,0.1-0.1,0.1-0.2,0.1
		c-0.1,0-0.3-0.1-0.4-0.2c-0.2-0.2-0.4-0.4-0.7-0.6c-0.3-0.2-0.7-0.5-1.2-0.8c-0.5-0.3-1-0.5-1.6-0.8c-0.6-0.2-1.4-0.4-2.2-0.6
		c-0.8-0.2-1.8-0.2-2.9-0.2c-2,0-3.8,0.3-5.4,1S60.8,4.7,59.6,6c-1.2,1.3-2.1,2.8-2.8,4.6c-0.7,1.8-1,3.8-1,6c0,2.3,0.3,4.3,1,6.1
		c0.7,1.8,1.6,3.3,2.7,4.5c1.2,1.2,2.5,2.2,4.1,2.9c1.6,0.7,3.3,1,5.2,1c1.2,0,2.2-0.1,3.2-0.2c0.9-0.2,1.8-0.4,2.5-0.7
		c0.8-0.3,1.5-0.7,2.1-1.2c0.7-0.5,1.3-1,2-1.6C78.7,27.2,78.8,27.1,78.8,27.1z"/>
	<path class="st0" d="M85.7,16h2c0.3,0,0.5,0,0.7,0c0.2,0,0.3,0,0.5-0.1c0.1,0,0.3-0.1,0.4-0.2c0.1-0.1,0.3-0.2,0.5-0.4l13.5-13
		c0.2-0.1,0.3-0.2,0.4-0.3c0.1,0,0.2-0.1,0.4-0.1h0.2L90.1,15.5c-0.2,0.2-0.4,0.4-0.6,0.5c-0.2,0.1-0.4,0.2-0.7,0.2
		c0.2,0,0.5,0.1,0.7,0.2c0.2,0.1,0.4,0.3,0.6,0.4l15,14.2h-0.2c-0.2,0-0.4,0-0.4-0.1c-0.1,0-0.2-0.1-0.3-0.2L89.8,17.3
		c-0.2-0.2-0.4-0.3-0.5-0.5c-0.2-0.1-0.3-0.2-0.5-0.2c-0.2-0.1-0.3-0.1-0.5-0.1c-0.2,0-0.4,0-0.7,0h-2v14.6h-0.5V1.9h0.5V16z"/>
	<path class="st0" d="M85.7,56.3h2c0.3,0,0.5,0,0.7,0c0.2,0,0.3,0,0.5-0.1s0.3-0.1,0.4-0.2c0.1-0.1,0.3-0.2,0.5-0.4l13.5-13
		c0.2-0.1,0.3-0.2,0.4-0.3c0.1,0,0.2-0.1,0.4-0.1h0.2L90.1,55.8c-0.2,0.2-0.4,0.4-0.6,0.5c-0.2,0.1-0.4,0.2-0.7,0.2
		c0.2,0,0.5,0.1,0.7,0.2c0.2,0.1,0.4,0.3,0.6,0.4l15,14.2h-0.2c-0.2,0-0.4,0-0.4-0.1c-0.1,0-0.2-0.1-0.3-0.2L89.8,57.5
		c-0.2-0.2-0.4-0.3-0.5-0.5c-0.2-0.1-0.3-0.2-0.5-0.2c-0.2-0.1-0.3-0.1-0.5-0.1c-0.2,0-0.4,0-0.7,0h-2v14.6h-0.5V42.2h0.5V56.3z"/>
	<path class="st0" d="M110.9,0h0.2c0.2,0,0.3,0.1,0.4,0.2l13.3,31.3h-0.2c-0.1,0-0.2,0-0.3,0c-0.1,0-0.2-0.1-0.2-0.2L110.9,0z"/>
	<path class="st0" d="M22.4,42.6v0.5H11.5v28.6H11V43.1H0v-0.5H22.4z"/>
	<path class="st0" d="M51.6,31.4h-0.4c-0.1,0-0.2-0.1-0.2-0.2L47,21.5H31.6l-4.1,9.7c0,0.1-0.1,0.2-0.3,0.2H27L39.1,2.4h0.4
		L51.6,31.4z M31.8,21.1h15L39.6,3.9c-0.1-0.2-0.1-0.3-0.2-0.4c0-0.1-0.1-0.3-0.2-0.4c-0.1,0.2-0.1,0.3-0.2,0.4
		c0,0.1-0.1,0.3-0.2,0.4L31.8,21.1z"/>
	<path class="st0" d="M51.6,71.7h-0.4c-0.1,0-0.2-0.1-0.2-0.2L47,61.8H31.6l-4.1,9.7c0,0.1-0.1,0.2-0.3,0.2H27l12.1-29.1h0.4
		L51.6,71.7z M31.8,61.4h15l-7.2-17.2c-0.1-0.2-0.1-0.3-0.2-0.4c0-0.1-0.1-0.3-0.2-0.4c-0.1,0.2-0.1,0.3-0.2,0.4
		c0,0.1-0.1,0.3-0.2,0.4L31.8,61.4z"/>
	<path class="st0" d="M62.9,71.2h14.8v0.5H62.4V42.6h0.5V71.2z"/>
	<path class="st0" d="M127.5,45.3c-0.1,0.1-0.1,0.1-0.2,0.1c-0.1,0-0.3-0.1-0.6-0.4c-0.3-0.3-0.6-0.6-1.1-0.9
		c-0.5-0.3-1.1-0.6-1.9-0.9c-0.8-0.3-1.7-0.4-2.9-0.4c-1.2,0-2.2,0.2-3.2,0.5c-0.9,0.4-1.7,0.9-2.3,1.5c-0.6,0.6-1.1,1.3-1.4,2.1
		c-0.3,0.8-0.5,1.6-0.5,2.5c0,1.1,0.2,2.1,0.7,2.8c0.4,0.7,1,1.4,1.7,1.9c0.7,0.5,1.5,0.9,2.4,1.3c0.9,0.3,1.8,0.7,2.8,1
		c0.9,0.3,1.9,0.6,2.8,1s1.7,0.8,2.4,1.3c0.7,0.5,1.3,1.2,1.7,2c0.4,0.8,0.7,1.8,0.7,2.9c0,1.2-0.2,2.3-0.6,3.3
		c-0.4,1-1,1.9-1.7,2.7c-0.8,0.8-1.7,1.4-2.8,1.8S121,72,119.6,72c-1,0-1.9-0.1-2.6-0.3c-0.8-0.2-1.5-0.4-2.1-0.7
		c-0.6-0.3-1.2-0.7-1.8-1.2c-0.5-0.5-1.1-1-1.6-1.6l0.1-0.1c0,0,0.1-0.1,0.1-0.1c0,0,0.1,0,0.1,0c0.1,0,0.2,0.1,0.4,0.3
		c0.2,0.2,0.4,0.4,0.7,0.7c0.3,0.3,0.6,0.6,1,0.9c0.4,0.3,0.9,0.6,1.4,0.9c0.6,0.3,1.2,0.5,1.9,0.7c0.7,0.2,1.5,0.3,2.4,0.3
		c1.3,0,2.5-0.2,3.6-0.6c1-0.4,1.9-1,2.7-1.7c0.7-0.7,1.3-1.6,1.7-2.5c0.4-1,0.6-2,0.6-3.1c0-0.9-0.1-1.7-0.4-2.4
		c-0.3-0.7-0.7-1.2-1.2-1.7c-0.5-0.5-1-0.9-1.7-1.2c-0.6-0.3-1.3-0.6-2.1-0.9c-0.7-0.3-1.5-0.5-2.2-0.7c-0.8-0.2-1.5-0.5-2.2-0.8
		c-0.7-0.3-1.4-0.6-2.1-0.9c-0.6-0.4-1.2-0.8-1.7-1.3c-0.5-0.5-0.9-1.1-1.2-1.8c-0.3-0.7-0.4-1.5-0.4-2.5c0-0.9,0.2-1.8,0.5-2.7
		c0.3-0.9,0.9-1.6,1.5-2.3c0.7-0.7,1.5-1.2,2.5-1.6c1-0.4,2.1-0.6,3.4-0.6c1.4,0,2.7,0.2,3.7,0.7c1.1,0.5,2.1,1.2,3.1,2.2
		L127.5,45.3z"/>
</g>
</svg>
