<svg xmlns="http://www.w3.org/2000/svg" viewBox="0 0 714.7 304.35"><defs><style>.cls-1{fill:#fff;}</style></defs><title>hacktalks_logo_1</title><g id="Layer_2" data-name="Layer 2"><g id="Layer_1-2" data-name="Layer 1"><path class="cls-1" d="M1.62,2.05H35.73V55.36H88.48V2.05H122.6V132.72H88.48V82.58H35.73v50.14H1.62Z"/><path class="cls-1" d="M255.5,132.72l-8.94-23.11H190.08l-9.14,23.11H145.89L202,2.05h35.05l54.81,130.67ZM200.33,83.51h36.16l-17.9-46.6Z"/><path class="cls-1" d="M394.91,33.65a36.17,36.17,0,0,0-17.34-4.76,33.94,33.94,0,0,0-18,4.94,35.11,35.11,0,0,0-12.77,13.61,40.16,40.16,0,0,0-4.66,19.29A40.17,40.17,0,0,0,346.81,86a35.11,35.11,0,0,0,12.77,13.61,33.94,33.94,0,0,0,18,4.94,39.51,39.51,0,0,0,16.78-4.11A53,53,0,0,0,410,89.29L430,110.73a79.75,79.75,0,0,1-25.26,17.8,70.11,70.11,0,0,1-64-2.33,65.25,65.25,0,0,1-24.6-24.42,67.92,67.92,0,0,1-8.95-34.67,65.12,65.12,0,0,1,34.2-58.35,74.31,74.31,0,0,1,64.41-2.7,71.38,71.38,0,0,1,24,16.49L410,46.42A48.71,48.71,0,0,0,394.91,33.65Z"/><path class="cls-1" d="M585.58,132.72H544.75L510.45,82l-16.4,18.27v32.43H459.93V2.05h34.12V58.72l49-56.67h39.52L534.13,55.92Z"/><path class="cls-1" d="M630.66,0l60.4,132.72h-28L602.7,0Z"/><path class="cls-1" d="M0,171.63H124.21v31.2H80.81V302.3H43V202.83H0Z"/><path class="cls-1" d="M255.5,302.3l-8.94-23.12H190.08l-9.14,23.12H145.89L202,171.63h35.05L291.86,302.3Zm-55.17-49.21h36.16l-17.9-46.61Z"/><path class="cls-1" d="M331.16,171.63h34.11V273.22h55.36V302.3H331.16Z"/><path class="cls-1" d="M586.08,302.3H545.26L511,251.59l-16.41,18.27V302.3H460.44V171.63h34.11v56.66l49-56.66H583.1L534.63,225.5Z"/><path class="cls-1" d="M679.37,200.89Q667.54,197,659.52,197q-6.33,0-10,2.33a7.58,7.58,0,0,0-3.63,6.8,9.33,9.33,0,0,0,3.16,7.18,24.23,24.23,0,0,0,7.83,4.66q4.67,1.77,13.8,4.57a176.14,176.14,0,0,1,22.46,7.83,39.13,39.13,0,0,1,15.19,12q6.35,8.1,6.34,21.16t-6.9,22.27a41.84,41.84,0,0,1-18.92,13.89,73.59,73.59,0,0,1-26.75,4.66,96.71,96.71,0,0,1-32.34-5.69,88.26,88.26,0,0,1-27.87-15.56l13.24-26.66a82.32,82.32,0,0,0,23.39,14.36q13.51,5.58,24,5.59,7.63,0,12-2.8a9.11,9.11,0,0,0,4.38-8.2,9.71,9.71,0,0,0-3.26-7.46,24.16,24.16,0,0,0-8.2-4.75q-5-1.77-13.89-4.19a171.69,171.69,0,0,1-22.19-7.55,39.23,39.23,0,0,1-15-11.56q-6.25-7.74-6.25-20.6A36,36,0,0,1,616.56,188Q623,178.9,634.82,174t27.5-4.94a99.83,99.83,0,0,1,28,4,92.36,92.36,0,0,1,24.23,10.72L701.65,211A114.52,114.52,0,0,0,679.37,200.89Z"/></g></g></svg>